<svg id="e4hpzem1ohd81" xmlns="http://www.w3.org/2000/svg" xmlns:xlink="http://www.w3.org/1999/xlink" viewBox="0 0 711.187900 669.682680" shape-rendering="geometricPrecision" text-rendering="geometricPrecision"><style><![CDATA[#e4hpzem1ohd842 {animation: e4hpzem1ohd842_c_o 3000ms linear infinite normal forwards}@keyframes e4hpzem1ohd842_c_o { 0% {opacity: 1} 80% {opacity: 0} 100% {opacity: 0} }#e4hpzem1ohd850 {animation: e4hpzem1ohd850_c_o 3000ms linear infinite normal forwards}@keyframes e4hpzem1ohd850_c_o { 0% {opacity: 0} 80% {opacity: 1} 100% {opacity: 1} }#e4hpzem1ohd855 {
           animation-name: e4hpzem1ohd855__sz, e4hpzem1ohd855_c_o;
           animation-duration: 3000ms;
           animation-fill-mode: forwards;
           animation-timing-function: linear;
           animation-direction: normal;
           animation-iteration-count: infinite;  
        }@keyframes e4hpzem1ohd855__sz { 0% {width: 29.752300px;height: 7.162600px} 80% {width: 29.752300px;height: 7.162600px} 90% {width: 29.752300px;height: 0px} 100% {width: 29.752300px;height: 0px} }@keyframes e4hpzem1ohd855_c_o { 0% {opacity: 0} 30% {opacity: 0} 43.333333% {opacity: 1} 100% {opacity: 1} }#e4hpzem1ohd856 {
           animation-name: e4hpzem1ohd856__sz, e4hpzem1ohd856_c_o;
           animation-duration: 3000ms;
           animation-fill-mode: forwards;
           animation-timing-function: linear;
           animation-direction: normal;
           animation-iteration-count: infinite;  
        }@keyframes e4hpzem1ohd856__sz { 0% {width: 29.752300px;height: 7.162600px} 80% {width: 29.752300px;height: 7.162600px} 100% {width: 29.752300px;height: 0px} }@keyframes e4hpzem1ohd856_c_o { 0% {opacity: 0} 16.666667% {opacity: 0} 30% {opacity: 1} 100% {opacity: 1} }#e4hpzem1ohd857 {
           animation-name: e4hpzem1ohd857__sz, e4hpzem1ohd857_c_o;
           animation-duration: 3000ms;
           animation-fill-mode: forwards;
           animation-timing-function: linear;
           animation-direction: normal;
           animation-iteration-count: infinite;  
        }@keyframes e4hpzem1ohd857__sz { 0% {width: 10.468400px;height: 7.162600px} 80% {width: 10.468400px;height: 7.162600px} 90% {width: 10.468400px;height: 0px} 100% {width: 10.468400px;height: 0px} }@keyframes e4hpzem1ohd857_c_o { 0% {opacity: 0} 16.666667% {opacity: 1} 100% {opacity: 1} }#e4hpzem1ohd858 {
           animation-name: e4hpzem1ohd858__sz, e4hpzem1ohd858_c_o;
           animation-duration: 3000ms;
           animation-fill-mode: forwards;
           animation-timing-function: linear;
           animation-direction: normal;
           animation-iteration-count: infinite;  
        }@keyframes e4hpzem1ohd858__sz { 0% {width: 10.468400px;height: 7.162600px} 80% {width: 10.468400px;height: 7.162600px} 90% {width: 10.468400px;height: 0px} 100% {width: 10.468400px;height: 0px} }@keyframes e4hpzem1ohd858_c_o { 0% {opacity: 0} 60% {opacity: 0} 80% {opacity: 1} 100% {opacity: 1} }#e4hpzem1ohd859 {
           animation-name: e4hpzem1ohd859__sz, e4hpzem1ohd859_c_o;
           animation-duration: 3000ms;
           animation-fill-mode: forwards;
           animation-timing-function: linear;
           animation-direction: normal;
           animation-iteration-count: infinite;  
        }@keyframes e4hpzem1ohd859__sz { 0% {width: 71.075100px;height: 7.162600px} 80% {width: 71.075100px;height: 7.162600px} 90% {width: 71.075100px;height: 0px} 100% {width: 71.075100px;height: 0px} }@keyframes e4hpzem1ohd859_c_o { 0% {opacity: 0} 43.333333% {opacity: 0} 60% {opacity: 1} 100% {opacity: 1} }]]></style><polygon id="e4hpzem1ohd82" points="516.326000,380.018000 516.326000,565.013000 547.270000,615.443000 549.625000,619.279000 671.722000,619.279000 674.189000,380.018000 516.326000,380.018000" fill="rgb(230,230,230)" stroke="none" stroke-width="1"/><polygon id="e4hpzem1ohd83" points="516.326000,380.018000 516.326000,565.013000 547.270000,615.443000 549.169000,380.018000 516.326000,380.018000" opacity="0.1" fill="rgb(0,0,0)" stroke="none" stroke-width="1"/><polygon id="e4hpzem1ohd84" points="221.566000,375.084000 221.566000,560.080000 190.622000,610.510000 188.267000,614.345000 66.170000,614.345000 63.703000,375.084000 221.566000,375.084000" fill="rgb(230,230,230)" stroke="none" stroke-width="1"/><polygon id="e4hpzem1ohd85" points="221.566000,375.084000 221.566000,560.080000 190.622000,610.510000 188.723000,375.084000 221.566000,375.084000" opacity="0.1" fill="rgb(0,0,0)" stroke="none" stroke-width="1"/><polygon id="e4hpzem1ohd86" points="711.188000,371.385000 711.188000,382.484000 47.670000,382.484000 47.670000,366.451000 109.335000,334.385000 656.923000,334.385000 711.188000,371.385000" fill="rgb(230,230,230)" stroke="none" stroke-width="1"/><polygon id="e4hpzem1ohd87" points="711.188000,371.385000 711.188000,382.484000 47.670000,382.484000 47.670000,366.451000 711.188000,371.385000" opacity="0.1" fill="rgb(0,0,0)" stroke="none" stroke-width="1"/><polygon id="e4hpzem1ohd88" points="142.635000,426.883000 113.035000,426.883000 100.702000,418.250000 156.201000,418.250000 142.635000,426.883000" fill="rgb(63,61,86)" stroke="none" stroke-width="1"/><polygon id="e4hpzem1ohd89" points="142.635000,462.649000 113.035000,462.649000 100.702000,454.016000 156.201000,454.016000 142.635000,462.649000" fill="rgb(63,61,86)" stroke="none" stroke-width="1"/><polygon id="e4hpzem1ohd810" points="142.635000,513.215000 113.035000,513.215000 100.702000,504.581000 156.201000,504.581000 142.635000,513.215000" fill="rgb(63,61,86)" stroke="none" stroke-width="1"/><polygon id="e4hpzem1ohd811" points="142.635000,563.780000 113.035000,563.780000 100.702000,555.147000 156.201000,555.147000 142.635000,563.780000" fill="rgb(63,61,86)" stroke="none" stroke-width="1"/><polygon id="e4hpzem1ohd812" points="595.257000,431.816000 624.857000,431.816000 637.190000,423.183000 581.691000,423.183000 595.257000,431.816000" fill="rgb(63,61,86)" stroke="none" stroke-width="1"/><polygon id="e4hpzem1ohd813" points="595.257000,467.582000 624.857000,467.582000 637.190000,458.949000 581.691000,458.949000 595.257000,467.582000" fill="rgb(63,61,86)" stroke="none" stroke-width="1"/><polygon id="e4hpzem1ohd814" points="595.257000,518.148000 624.857000,518.148000 637.190000,509.515000 581.691000,509.515000 595.257000,518.148000" fill="rgb(63,61,86)" stroke="none" stroke-width="1"/><polygon id="e4hpzem1ohd815" points="595.257000,568.713000 624.857000,568.713000 637.190000,560.080000 581.691000,560.080000 595.257000,568.713000" fill="rgb(63,61,86)" stroke="none" stroke-width="1"/><path id="e4hpzem1ohd816" d="M859.819890,235.614930L610.634460,235.614930C608.134992,235.614614,605.737805,236.607384,603.970415,238.374775C602.203024,240.142165,601.210254,242.539352,601.210570,245.038820L601.210570,412.896550C601.210257,415.396016,602.203028,417.793200,603.970418,419.560589C605.737809,421.327977,608.134994,422.320746,610.634460,422.320430L705.227360,422.320430L701.683470,444.946660C701.683470,444.946660,681.430660,455.705930,695.670960,456.022400C709.911260,456.338870,776.998600,456.022400,776.998600,456.022400C776.998600,456.022400,789.973080,456.022400,769.403810,444.630190L766.070190,422.320430L859.819890,422.320430C862.319358,422.320754,864.716546,421.327987,866.483937,419.560597C868.251327,417.793206,869.244094,415.396018,869.243770,412.896550L869.243770,245.038820C869.244096,242.539351,868.251331,240.142159,866.483940,238.374767C864.716550,236.607374,862.319359,235.614606,859.819890,235.614930Z" transform="matrix(1 0 0 1 -244.40600000000001 -115.15900000000001)" fill="rgb(63,61,86)" stroke="none" stroke-width="1"/><rect id="e4hpzem1ohd817" width="249.996000" height="139.871000" rx="0" ry="0" transform="matrix(1 0 0 1 365.85329999999999 129.56809999999999)" fill="rgb(242,242,242)" stroke="none" stroke-width="1"/><circle id="e4hpzem1ohd818" r="1.582250" transform="matrix(1 0 0 1 490.82100000000003 125.99400000000000)" fill="rgb(242,242,242)" stroke="none" stroke-width="1"/><circle id="e4hpzem1ohd819" r="6.012550" transform="matrix(1 0 0 1 490.82100000000003 294.34600000000000)" fill="rgb(242,242,242)" stroke="none" stroke-width="1"/><polygon id="e4hpzem1ohd820" points="481.452000,357.952000 481.452000,361.117000 311.202000,361.117000 311.202000,358.585000 311.436000,357.952000 315.632000,346.560000 477.971000,346.560000 481.452000,357.952000" fill="rgb(63,61,86)" stroke="none" stroke-width="1"/><path id="e4hpzem1ohd821" d="M791.375580,470.012660C791.065470,471.338560,789.894580,472.737330,787.249080,474.060070C777.755580,478.806820,758.452080,472.794270,758.452080,472.794270C758.452080,472.794270,743.578930,470.262660,743.578930,463.617210C743.996541,463.331242,744.432020,463.072286,744.882700,462.841930C748.874030,460.730300,762.108000,455.519710,785.573210,463.062550C787.301916,463.605188,788.846036,464.617096,790.033560,465.985550C791.100810,467.035041,791.599917,468.532752,791.375580,470.012660Z" transform="matrix(1 0 0 1 -244.40600000000001 -115.15900000000001)" fill="rgb(63,61,86)" stroke="none" stroke-width="1"/><path id="e4hpzem1ohd822" d="M791.375580,470.012660C779.755580,474.465130,769.398140,474.797380,758.768580,467.414610C754.748970,464.442918,749.881571,462.840056,744.882750,462.841930C748.874080,460.730300,762.108050,455.519710,785.573260,463.062550C787.301966,463.605188,788.846086,464.617096,790.033610,465.985550C791.100842,467.035051,791.599930,468.532760,791.375580,470.012660Z" transform="matrix(1 0 0 1 -244.40600000000001 -115.15900000000001)" opacity="0.1" fill="rgb(0,0,0)" stroke="none" stroke-width="1"/><ellipse id="e4hpzem1ohd823" rx="4.113850" ry="1.265800" transform="matrix(1 0 0 1 532.39999999999998 350.99000000000001)" fill="rgb(242,242,242)" stroke="none" stroke-width="1"/><polygon id="e4hpzem1ohd824" points="481.452000,357.952000 481.452000,361.117000 311.202000,361.117000 311.202000,358.585000 311.436000,357.952000 481.452000,357.952000" opacity="0.1" fill="rgb(0,0,0)" stroke="none" stroke-width="1"/><path id="e4hpzem1ohd825" d="M339.067510,115.158810C337.339656,115.016946,335.609480,115.403452,334.106250,116.267110C332.630250,117.277910,331.699960,119.048730,330.750370,120.696580C327.119685,127.072198,322.204473,132.624311,316.316090,137.001220C312.027150,140.143220,306.574400,144.060880,307.308200,149.853910C307.695307,151.767016,308.402064,153.601202,309.398780,155.279410C313.355380,163.266410,324.152350,169.438670,323.090340,178.552500C327.021340,171.971580,321.763340,168.717500,325.694340,162.136640C327.566390,159.002640,330.818460,155.464960,333.644880,157.433110C334.591250,158.092110,335.212650,159.274060,336.198020,159.852280C338.549240,161.232000,341.050610,158.594280,343.131890,156.725950C350.308740,150.283320,360.514890,151.971150,369.445760,153.978520C373.662000,154.926190,378.293060,156.169520,380.785470,160.199220C384.062470,165.497430,377.672030,171.219560,376.057400,177.209710C375.789838,178.245739,376.047067,179.347118,376.745850,180.157456C377.444634,180.967794,378.496220,181.384169,379.560330,181.271850C382.240080,181.007510,385.414530,180.790850,385.573110,179.614910C388.944650,179.734910,393.075800,179.353100,394.520390,175.842410C394.961904,174.453381,395.195275,173.006624,395.212910,171.549220C395.743110,165.652040,398.246010,160.272030,399.904100,154.659290C401.562190,149.046550,402.283160,142.468790,399.485010,137.492490C398.486378,135.836789,397.251352,134.335768,395.819010,133.036920C379.940000,117.670170,359.062590,115.136000,339.067510,115.158810Z" transform="matrix(1 0 0 1 -244.40600000000001 -115.15900000000001)" fill="rgb(47,46,65)" stroke="none" stroke-width="1"/><path id="e4hpzem1ohd826" d="M326.543750,190.063860C326.543750,190.063860,329.997150,218.842260,317.334660,221.144540C304.672170,223.446820,328.846020,262.585440,328.846020,262.585440L386.402830,269.492260L372.589190,223.446810C372.589190,223.446810,363.380100,219.993400,369.135790,196.970680C374.891480,173.947960,326.543750,190.063860,326.543750,190.063860Z" transform="matrix(1 0 0 1 -244.40600000000001 -115.15900000000001)" fill="rgb(255,184,184)" stroke="none" stroke-width="1"/><polygon id="e4hpzem1ohd827" points="47.028000,569.318000 51.633000,632.631000 75.806000,632.631000 68.900000,569.318000 47.028000,569.318000" fill="rgb(255,184,184)" stroke="none" stroke-width="1"/><polygon id="e4hpzem1ohd828" points="224.303000,449.600000 227.756000,502.552000 254.233000,491.041000 243.872000,447.298000 224.303000,449.600000" fill="rgb(255,184,184)" stroke="none" stroke-width="1"/><path id="e4hpzem1ohd829" d="M274.167050,442.738260C274.167050,442.738260,275.318180,509.504160,282.225050,531.375750C289.131920,553.247340,287.980730,554.398470,286.829600,557.851880C285.678470,561.305290,284.527320,559.003020,284.527320,564.758700C284.527320,570.514380,282.225050,661.454140,284.527320,669.512100C286.829590,677.570060,277.620510,691.383690,284.527320,692.534820C291.434130,693.685950,323.665950,692.534820,324.817090,685.628000C325.968230,678.721180,315.608000,676.418910,320.212550,671.814370C324.817100,667.209830,331.723910,572.816650,331.723910,572.816650L347.839820,507.201890L377.769360,472.667800L441.081800,472.667800L460.651120,548.642800C460.651120,548.642800,452.593120,570.514390,458.348840,570.514390C464.104560,570.514390,498.638610,577.421210,498.638610,552.096210C498.638610,526.771210,487.127250,451.947350,484.825000,449.645080C482.522750,447.342810,485.976130,439.284850,482.522720,435.831440C479.069310,432.378030,438.779550,408.204170,423.814780,403.599630C408.850010,398.995090,387.857000,393.514760,387.857000,393.514760Z" transform="matrix(1 0 0 1 -244.40600000000001 -115.15900000000001)" fill="rgb(47,46,65)" stroke="none" stroke-width="1"/><path id="e4hpzem1ohd830" d="M498.638610,596.990510C498.638610,596.990510,481.371610,591.234830,473.313610,608.501880C465.255610,625.768930,468.709070,630.373470,468.709070,630.373470C468.709070,630.373470,495.185200,639.582560,499.789750,634.978010C501.793080,632.974670,508.154460,632.278750,514.702480,632.131800C524.675370,631.907990,527.328730,617.798570,517.909960,614.512950Q517.488510,614.365950,517.056790,614.257560C507.847700,611.955290,498.638610,596.990510,498.638610,596.990510Z" transform="matrix(1 0 0 1 -244.40600000000001 -115.15900000000001)" fill="rgb(47,46,65)" stroke="none" stroke-width="1"/><circle id="e4hpzem1ohd831" r="34.534100" transform="matrix(1 0 0 1 108.03800000000000 59.36490000000000)" fill="rgb(255,184,184)" stroke="none" stroke-width="1"/><path id="e4hpzem1ohd832" d="M307.550000,235.533740C307.550000,235.533740,363.955670,247.045100,377.769310,228.626920C391.582950,210.208740,397.338620,280.428050,397.338620,280.428050L404.245440,354.100770L393.885210,394.390540C393.885210,394.390540,339.781810,438.133720,322.514770,441.587120C305.247730,445.040520,278.771590,447.342810,278.771590,447.342810C278.771590,447.342810,286.829590,319.566680,286.829590,317.264410C286.829590,314.962140,307.550000,235.533740,307.550000,235.533740Z" transform="matrix(1 0 0 1 -244.40600000000001 -115.15900000000001)" fill="rgb(0,213,99)" stroke="none" stroke-width="1"/><path id="e4hpzem1ohd833" d="M324.704330,213.944560C324.704330,213.944560,312.154540,206.755330,308.701130,213.662150C305.247720,220.568970,273.015910,237.836000,269.562500,237.836000C266.109090,237.836000,276.469320,333.380310,271.864770,344.891670C267.260220,356.403030,245.388640,440.436000,258.051140,447.342810C270.713640,454.249620,261.504550,440.435990,274.167050,457.703030C286.829550,474.970070,348.990900,474.970030,352.444310,468.063260C355.897720,461.156490,324.817040,409.355260,330.572720,361.007590C336.328400,312.659920,345.537490,245.893970,337.479540,236.684880C329.421590,227.475790,324.704330,213.944560,324.704330,213.944560Z" transform="matrix(1 0 0 1 -244.40600000000001 -115.15900000000001)" fill="rgb(47,46,65)" stroke="none" stroke-width="1"/><path id="e4hpzem1ohd834" d="M366.258000,221.720100L367.861410,216.202100C367.861410,216.202100,415.756850,232.080340,418.059130,242.440570C420.361410,252.800800,419.210260,325.322380,411.152310,331.078060C403.094360,336.833740,391.582990,346.042830,399.640950,359.856460C407.698910,373.670090,416.907950,388.634870,423.814810,389.786000C430.721670,390.937130,443.384120,398.995090,439.930710,407.053000C436.477300,415.110910,395.036400,400.146180,395.036400,400.146180C395.036400,400.146180,367.409130,379.425730,368.560270,347.193910C369.711410,314.962090,366.258000,221.720100,366.258000,221.720100Z" transform="matrix(1 0 0 1 -244.40600000000001 -115.15900000000001)" fill="rgb(47,46,65)" stroke="none" stroke-width="1"/><path id="e4hpzem1ohd835" d="M406.547710,357.554180L378.920440,409.355310C378.920440,409.355310,338.630680,450.796210,361.653440,455.400760C384.676200,460.005310,397.338660,417.413260,397.338660,417.413260L427.268210,374.821260Z" transform="matrix(1 0 0 1 -244.40600000000001 -115.15900000000001)" fill="rgb(255,184,184)" stroke="none" stroke-width="1"/><path id="e4hpzem1ohd836" d="M340.749810,124.194570C339.357849,124.091428,337.963596,124.361857,336.711130,124.977910C335.578697,125.804975,334.645356,126.874603,333.979310,128.108630C330.908919,132.727183,326.906542,136.652546,322.229210,139.632630C318.737830,141.853400,314.299070,144.622350,314.896410,148.716830C315.220672,150.089640,315.797787,151.390047,316.598230,152.551530C319.830186,158.253753,321.116815,164.853548,320.263420,171.352210L329.863530,157.398210C331.387460,155.183140,334.034780,152.682710,336.335600,154.073790C337.105990,154.539560,337.611830,155.374960,338.413960,155.783640C340.327960,156.758820,342.364170,154.894520,344.058430,153.573970C349.900680,149.020360,358.208920,150.213310,365.479020,151.632100C368.911210,152.301910,372.681090,153.180690,374.710020,156.028860C378.081710,160.761970,374.561020,167.600960,376.528840,173.068860C377.641728,172.289687,378.391576,171.092983,378.607360,169.751690C381.351930,169.836530,384.714860,169.566690,385.890810,167.085310C386.248481,166.112871,386.439083,165.086935,386.454550,164.050920C386.886160,159.882830,388.923620,156.080270,390.273380,152.113230C391.623140,148.146190,392.210040,143.497070,389.932220,139.979850C389.098920,138.788124,388.093187,137.726814,386.947960,136.830680C374.021740,125.969580,357.026640,124.178450,340.749810,124.194570Z" transform="matrix(1 0 0 1 -244.40600000000001 -115.15900000000001)" fill="rgb(47,46,65)" stroke="none" stroke-width="1"/><path id="e4hpzem1ohd837" d="M406.547710,237.836000L417.272990,240.682860C417.272990,240.682860,442.232940,304.601860,436.477260,348.345080C430.721580,392.088300,427.268170,382.879170,427.268170,382.879170C427.268170,382.879170,418.059080,362.158710,397.338620,366.763260Z" transform="matrix(1 0 0 1 -244.40600000000001 -115.15900000000001)" fill="rgb(47,46,65)" stroke="none" stroke-width="1"/><path id="e4hpzem1ohd838" d="M293.028940,739.422000C290.253020,743.194280,290.809590,748.586590,288.350660,752.572750C286.219220,756.028010,282.202290,757.839700,279.536270,760.901440C278.685572,761.918610,277.927184,763.009545,277.270100,764.161310C274.796990,768.303860,272.786800,773.613050,275.222490,777.777720C277.181850,781.127940,281.300350,782.437330,285.077490,783.329720C289.851560,784.457720,294.811850,785.360430,299.641030,784.498480C304.470210,783.636530,309.189850,780.679480,310.911700,776.086090C311.250122,774.931084,311.652441,773.795768,312.116800,772.685390C314.734270,767.532450,322.944290,767.476750,325.623080,762.355390C327.497740,758.771390,325.774460,754.439160,324.051900,750.779610L318.790810,739.602510C317.044890,735.893320,309.967190,738.026430,306.277420,737.137590C301.465180,735.978440,296.490840,734.701260,293.028940,739.422000Z" transform="matrix(1 0 0 1 -244.40600000000001 -115.15900000000001)" fill="rgb(47,46,65)" stroke="none" stroke-width="1"/><path id="e4hpzem1ohd839" d="M254.597730,380.576900L302.945450,455.400760C302.945450,455.400760,332.874990,493.388250,342.084080,476.121210C351.293170,458.854170,309.852270,430.075760,309.852270,430.075760L278.771590,372.519000Z" transform="matrix(1 0 0 1 -244.40600000000001 -115.15900000000001)" fill="rgb(255,184,184)" stroke="none" stroke-width="1"/><path id="e4hpzem1ohd840" d="M278.771590,240.138280L269.562500,237.836000C269.562500,237.836000,251.144320,243.591680,246.539780,267.765540C241.935240,291.939400,245.388640,388.634850,251.144320,389.785980C256.900000,390.937110,279.571570,372.949350,283.200560,376.763120C286.829550,380.576890,275.318180,361.007580,278.771560,350.647350C282.224940,340.287120,278.771590,240.138280,278.771590,240.138280Z" transform="matrix(1 0 0 1 -244.40600000000001 -115.15900000000001)" fill="rgb(47,46,65)" stroke="none" stroke-width="1"/><g id="e4hpzem1ohd841"><rect id="e4hpzem1ohd842" width="29.752300" height="7.162600" rx="0" ry="0" transform="matrix(1 0 0 1 437.40699999999998 176.36300000000000)" fill="rgb(0,213,99)" stroke="none" stroke-width="1"/><rect id="e4hpzem1ohd843" width="10.468400" height="7.162600" rx="0" ry="0" transform="matrix(1 0 0 1 559.72199999999998 176.36300000000000)" fill="rgb(0,213,99)" stroke="none" stroke-width="1"/><rect id="e4hpzem1ohd844" width="10.468400" height="7.162600" rx="0" ry="0" transform="matrix(1 0 0 1 580.65899999999999 176.36300000000000)" fill="rgb(0,213,99)" stroke="none" stroke-width="1"/><rect id="e4hpzem1ohd845" width="71.075100" height="7.162600" rx="0" ry="0" transform="matrix(1 0 0 1 477.62799999999999 176.36300000000000)" fill="rgb(0,213,99)" stroke="none" stroke-width="1"/><rect id="e4hpzem1ohd846" width="29.752300" height="7.162600" rx="0" ry="0" transform="matrix(1 0 0 1 399.94099999999997 222.64400000000001)" fill="rgb(0,213,99)" stroke="none" stroke-width="1"/><rect id="e4hpzem1ohd847" width="10.468400" height="7.162600" rx="0" ry="0" transform="matrix(1 0 0 1 522.25599999999997 222.64400000000001)" fill="rgb(0,213,99)" stroke="none" stroke-width="1"/><rect id="e4hpzem1ohd848" width="10.468400" height="7.162600" rx="0" ry="0" transform="matrix(1 0 0 1 543.19299999999998 222.64400000000001)" fill="rgb(0,213,99)" stroke="none" stroke-width="1"/><rect id="e4hpzem1ohd849" width="71.075100" height="7.162600" rx="0" ry="0" transform="matrix(1 0 0 1 440.16199999999998 222.64400000000001)" fill="rgb(0,213,99)" stroke="none" stroke-width="1"/><rect id="e4hpzem1ohd850" width="29.752300" height="7.162600" rx="0" ry="0" transform="matrix(1 0 0 1 522.80700000000002 192.34100000000001)" opacity="0" fill="rgb(0,213,99)" stroke="none" stroke-width="1"/><rect id="e4hpzem1ohd851" width="29.752300" height="7.162600" rx="0" ry="0" transform="matrix(1 0 0 1 563.02800000000002 192.34100000000001)" fill="rgb(0,213,99)" stroke="none" stroke-width="1"/><rect id="e4hpzem1ohd852" width="10.468400" height="7.162600" rx="0" ry="0" transform="matrix(1 0 0 1 399.94099999999997 192.34100000000001)" fill="rgb(0,213,99)" stroke="none" stroke-width="1"/><rect id="e4hpzem1ohd853" width="10.468400" height="7.162600" rx="0" ry="0" transform="matrix(1 0 0 1 420.87799999999999 192.34100000000001)" fill="rgb(0,213,99)" stroke="none" stroke-width="1"/><rect id="e4hpzem1ohd854" width="71.075100" height="7.162600" rx="0" ry="0" transform="matrix(1 0 0 1 441.81500000000000 192.34100000000001)" fill="rgb(0,213,99)" stroke="none" stroke-width="1"/><rect id="e4hpzem1ohd855" width="29.752300" height="7.162600" rx="0" ry="0" transform="matrix(1 0 0 1 461.09899999999999 207.76800000000000)" opacity="0" fill="rgb(0,213,99)" stroke="none" stroke-width="1"/><rect id="e4hpzem1ohd856" width="29.752300" height="7.162600" rx="0" ry="0" transform="matrix(1 0 0 1 420.87799999999999 207.76800000000000)" opacity="0" fill="rgb(0,213,99)" stroke="none" stroke-width="1"/><rect id="e4hpzem1ohd857" width="10.468400" height="7.162600" rx="0" ry="0" transform="matrix(1 0 0 1 399.94099999999997 207.76800000000000)" opacity="0" fill="rgb(0,213,99)" stroke="none" stroke-width="1"/><rect id="e4hpzem1ohd858" width="10.468400" height="7.162600" rx="0" ry="0" transform="matrix(1 0 0 1 582.31200000000001 207.76800000000000)" opacity="0" fill="rgb(0,213,99)" stroke="none" stroke-width="1"/><rect id="e4hpzem1ohd859" width="71.075100" height="7.162600" rx="0" ry="0" transform="matrix(1 0 0 1 500.76799999999997 207.76800000000000)" opacity="0" fill="rgb(0,213,99)" stroke="none" stroke-width="1"/></g></svg>